# xmcd CD database file
#
# Track frame offsets:
#	150
#	16655
#	41425
#	52495
#	65318
#	74158
#	83275
#	89903
#	101853
#	109800
#	126728
#	137375
#
# Disc length: 2112 seconds
#
# Revision: 5
# Processed by: cddbd v1.4PL0 Copyright (c) Steve Scherf et al.
# Submitted via: CDex 1.40Beta8
#
DISCID=af083e0c
DTITLE=Caetano Veloso - Caetano Veloso
DYEAR=1967
DGENRE=MPB
TTITLE0=Tropicália
TTITLE1=Clarice
TTITLE2=No Dia Em Que Eu Vim-me Embora
TTITLE3=Alegria, Alegria
TTITLE4=Onde Andarás
TTITLE5=Anunciação
TTITLE6=Superbacana
TTITLE7=Paisagem Útil
TTITLE8=Clara
TTITLE9=Soy Loco Por Tí, América
TTITLE10=Ave Maria
TTITLE11=Eles
EXTD=Polygram Brazil 838 557-2 YEAR: 1967
EXTT0=
EXTT1=
EXTT2=
EXTT3=
EXTT4=
EXTT5=
EXTT6=
EXTT7=
EXTT8=
EXTT9=
EXTT10=
EXTT11=
PLAYORDER=
